<?xml version="1.0" standalone="no"?><!DOCTYPE svg PUBLIC "-//W3C//DTD SVG 1.1//EN" "http://www.w3.org/Graphics/SVG/1.1/DTD/svg11.dtd"><svg t="1678342430385" class="icon" viewBox="0 0 1024 1024" version="1.1" xmlns="http://www.w3.org/2000/svg" p-id="1483" xmlns:xlink="http://www.w3.org/1999/xlink" width="200" height="200"><path d="M498.944 96.192c-103.296 6.08-188.416 90.304-195.392 193.664-7.808 121.6 87.68 223.168 207.552 223.168a208.512 208.512 0 0 0 208.448-208.384 207.68 207.68 0 0 0-220.608-208.448zM512 580.8c-138.944 0-416 69.44-416 208.448v104.192c0 19.136 15.616 34.752 34.752 34.752h762.496a34.816 34.816 0 0 0 34.752-34.752v-105.088c0-138.112-277.056-207.552-416-207.552z" p-id="1484"></path></svg>